<svg width="439" height="102" viewBox="0 0 439 102" fill="none" xmlns="http://www.w3.org/2000/svg">
<g clip-path="url(#clip0_2317_3)">
<path d="M75.627 0L75.4896 0.691426L53.3285 98.2002L52.4953 101.941H66.2085L66.3459 101.25L88.5071 3.74079L89.3403 0H75.627V0ZM44.3222 13.2966L42.5228 14.6839L2.63274 45.7094L0 47.7882V54.1617L2.63274 56.2404L42.5228 87.2659L44.3222 88.6532V71.895L17.4497 50.9794L44.3222 30.0637V13.3055V13.2966ZM97.5089 13.2966V30.0549L124.381 50.9705L97.5089 71.8861V88.6443L99.3084 87.257L139.198 56.2315L141.831 54.1528V47.7793L139.198 45.7006L99.3084 14.6751L97.5089 13.2878V13.2966Z" fill="#EEEEEE"/>
<path d="M218.706 12.3555C223.242 14.0658 227.332 16.8172 230.976 20.6097C238.784 28.492 242.688 38.5495 242.688 50.782C242.688 63.0145 238.784 73.1091 230.976 81.0659C227.332 84.8583 223.242 87.6097 218.706 89.32C214.021 91.2534 209.225 92.2202 204.317 92.2202H172.751C171.71 92.2202 170.799 91.8298 170.018 91.049C169.237 90.2682 168.847 89.3572 168.847 88.3162V80.2851C168.847 79.1696 169.237 78.2215 170.018 77.4407C170.799 76.6599 171.71 76.2695 172.751 76.2695H203.982C210.601 76.2695 215.973 73.8528 220.1 69.0192C224.227 64.1857 226.291 58.1252 226.291 50.8378C226.291 43.5503 224.227 37.4898 220.1 32.6563C215.973 27.8228 210.601 25.406 203.982 25.406H172.751C171.71 25.406 170.799 25.0156 170.018 24.2348C169.237 23.454 168.847 22.5059 168.847 21.3905V13.3594C168.847 12.3183 169.237 11.4074 170.018 10.6266C170.799 9.84578 171.71 9.45538 172.751 9.45538H204.317C209.225 9.45538 214.021 10.4221 218.706 12.3555ZM309.881 25.6291C308.988 25.4804 308.245 25.0342 307.65 24.2906C307.055 23.547 306.757 22.729 306.757 21.8366V13.3594C306.757 12.244 307.204 11.2401 308.096 10.3477C309.063 9.60411 310.141 9.34384 311.331 9.56693C320.105 11.0542 327.541 14.9582 333.639 21.2789C336.762 24.5508 339.291 28.2689 341.224 32.4332C341.521 32.9537 341.652 33.5486 341.614 34.2179C341.577 34.8871 341.373 35.5192 341.001 36.1141C340.629 36.709 340.164 37.1738 339.607 37.5084C339.049 37.843 338.435 38.0103 337.766 38.0103H328.285C327.616 38.0103 326.984 37.843 326.389 37.5084C325.794 37.1738 325.311 36.709 324.939 36.1141C323.898 34.5525 322.931 33.3255 322.039 32.4332C318.692 29.0126 314.64 26.7445 309.881 25.6291ZM298.503 10.3477C299.396 11.2401 299.842 12.244 299.842 13.3594V21.8366C299.842 22.729 299.544 23.547 298.949 24.2906C298.355 25.0342 297.611 25.4804 296.719 25.6291C291.96 26.7445 287.907 29.0126 284.561 32.4332C279.95 37.4154 277.645 43.6433 277.645 51.1166C277.645 58.59 279.95 64.8178 284.561 69.8C287.758 73.2207 291.811 75.4887 296.719 76.6042C297.611 76.7529 298.355 77.1991 298.949 77.9427C299.544 78.6863 299.842 79.5043 299.842 80.3966V88.8739C299.842 90.0637 299.358 91.0676 298.392 91.8855C297.648 92.4804 296.83 92.7779 295.938 92.7779H295.269C286.345 91.1419 278.909 87.2007 272.96 80.9543C265.227 72.9976 261.36 63.0517 261.36 51.1166C261.36 39.1815 265.227 29.2356 272.96 21.2789C278.983 14.9582 286.42 11.0542 295.269 9.56693C296.458 9.34384 297.537 9.60411 298.503 10.3477ZM345.128 48.83C345.202 49.3505 345.24 50.1313 345.24 51.1724C345.24 52.8084 345.128 54.7046 344.905 56.8611C343.789 66.305 340.034 74.3361 333.639 80.9543C327.541 87.2751 320.105 91.2163 311.331 92.7779H310.661C309.769 92.7779 308.914 92.4804 308.096 91.8855C307.204 90.9932 306.757 89.9893 306.757 88.8739V80.3966C306.757 79.5043 307.055 78.6863 307.65 77.9427C308.245 77.1991 308.988 76.7529 309.881 76.6042C314.788 75.4887 318.841 73.2207 322.039 69.8C324.641 67.0487 326.5 63.8883 327.616 60.3189H303.969C302.853 60.3189 301.924 59.9471 301.18 59.2035C300.437 58.4599 300.065 57.5303 300.065 56.4149V48.4954C300.065 47.4543 300.437 46.5434 301.18 45.7626C301.924 44.9818 302.853 44.5914 303.969 44.5914H341.224C342.265 44.5914 343.157 44.9446 343.901 45.651C344.645 46.3575 345.054 47.2312 345.128 48.2723V48.83ZM438.199 85.8622C438.645 86.3828 438.905 87.0148 438.98 87.7584C439.054 88.5021 438.924 89.2085 438.589 89.8778C438.255 90.547 437.771 91.0676 437.139 91.4394C436.507 91.8112 435.819 91.9971 435.076 91.9971H424.479C423.81 91.9971 423.196 91.8483 422.639 91.5509C422.081 91.2534 421.616 90.8445 421.244 90.3239L394.586 51.9532L383.655 62.2151V88.0931C383.655 89.1341 383.264 90.0451 382.483 90.8259C381.703 91.6067 380.792 91.9971 379.751 91.9971H371.273C370.232 91.9971 369.321 91.6067 368.541 90.8259C367.76 90.0451 367.369 89.1341 367.369 88.0931V57.0842C367.369 55.8944 367.778 54.9649 368.596 54.2956L415.221 10.5708C415.965 9.82719 416.857 9.45538 417.898 9.45538H429.945C430.688 9.45538 431.395 9.67847 432.064 10.1246C432.733 10.5708 433.217 11.1657 433.514 11.9093C433.811 12.6529 433.886 13.4152 433.737 14.196C433.588 14.9768 433.217 15.6646 432.622 16.2595L406.521 40.7989L438.199 85.8622ZM371.273 37.8988C370.232 37.8988 369.321 37.527 368.541 36.7834C367.76 36.0398 367.369 35.1102 367.369 33.9948V13.3594C367.369 12.3183 367.76 11.4074 368.541 10.6266C369.321 9.84578 370.232 9.45538 371.273 9.45538H379.751C380.792 9.45538 381.703 9.84578 382.483 10.6266C383.264 11.4074 383.655 12.3183 383.655 13.3594V33.9948C383.655 35.1102 383.264 36.0398 382.483 36.7834C381.703 37.527 380.792 37.8988 379.751 37.8988H371.273Z" fill="#EEEEEE"/>
</g>
<defs>
<clipPath id="clip0_2317_3">
<rect width="439" height="101.941" fill="white"/>
</clipPath>
</defs>
</svg>
